<svg width="445" height="122" viewBox="0 0 445 122" fill="none" xmlns="http://www.w3.org/2000/svg">
<path d="M187.615 71.9708C187.615 74.6998 188.123 77.0809 189.14 79.1143C190.21 81.0941 191.762 82.6191 193.795 83.6893C195.882 84.7595 198.423 85.2946 201.42 85.2946C204.47 85.2946 207.012 84.7595 209.045 83.6893C211.078 82.6191 212.603 81.0941 213.62 79.1143C214.637 77.0809 215.145 74.6998 215.145 71.9708V38.6614H231.84V72.7734C231.84 78.2849 230.556 83.1007 227.987 87.2209C225.472 91.2876 221.941 94.4714 217.392 96.7723C212.844 99.0196 207.52 100.143 201.42 100.143C195.373 100.143 190.049 99.0196 185.447 96.7723C180.899 94.4714 177.341 91.2876 174.772 87.2209C172.257 83.1007 171 78.2849 171 72.7734V38.6614H187.615V71.9708Z" fill="white"/>
<path d="M242.268 98.8591V38.6614H258.803V85.6156L254.388 82.1643L288.5 38.6614H306.078L257.278 98.8591H242.268ZM271.003 70.1247L283.203 60.0115L306.881 98.8591H288.019L271.003 70.1247Z" fill="white"/>
<path d="M327.554 54.2286V51.7462H343.938V54.2286H327.554ZM337.577 36.7281L349.026 60H345.861L335.094 37.721H336.646L325.848 60H322.683L334.132 36.7281H337.577ZM361.317 36.7281V58.6968L360.014 57.4246H377.607V60H358.4V36.7281H361.317ZM389.977 36.7281V58.6968L388.673 57.4246H406.267V60H387.06V36.7281H389.977ZM323.241 87.0157H326.096V88.1637C326.096 90.522 326.665 92.3837 327.802 93.749C328.961 95.0936 330.812 95.7659 333.357 95.7659C335.901 95.7659 337.742 95.1039 338.88 93.78C340.038 92.4561 340.618 90.6254 340.618 88.2878V74.7281H343.534V88.3499C343.534 90.6461 343.1 92.5389 342.231 94.0283C341.383 95.497 340.193 96.5933 338.663 97.3174C337.132 98.0414 335.363 98.4034 333.357 98.4034C331.371 98.4034 329.612 98.0414 328.082 97.3174C326.551 96.5933 325.361 95.4866 324.513 93.9972C323.665 92.4871 323.241 90.584 323.241 88.2878V87.0157ZM366.857 98.4034C364.272 98.4034 361.986 97.8966 360 96.8829C358.035 95.8693 356.504 94.4627 355.408 92.663C354.311 90.8426 353.763 88.7429 353.763 86.364C353.763 83.9644 354.311 81.8648 355.408 80.0651C356.504 78.2654 358.035 76.8587 360 75.8451C361.986 74.8315 364.272 74.3247 366.857 74.3247C369.443 74.3247 371.719 74.8315 373.684 75.8451C375.649 76.8587 377.18 78.2654 378.276 80.0651C379.372 81.8648 379.921 83.9644 379.921 86.364C379.921 88.7429 379.372 90.8426 378.276 92.663C377.18 94.4627 375.649 95.8693 373.684 96.8829C371.719 97.8966 369.443 98.4034 366.857 98.4034ZM366.857 95.7659C368.905 95.7659 370.684 95.3832 372.194 94.6178C373.704 93.8317 374.873 92.7354 375.701 91.3287C376.528 89.9221 376.942 88.2672 376.942 86.364C376.942 84.4402 376.528 82.775 375.701 81.3683C374.873 79.9617 373.704 78.8756 372.194 78.1103C370.684 77.3449 368.905 76.9622 366.857 76.9622C364.809 76.9622 363.03 77.3449 361.52 78.1103C360.01 78.8756 358.831 79.9617 357.983 81.3683C357.156 82.775 356.742 84.4402 356.742 86.364C356.742 88.2672 357.156 89.9221 357.983 91.3287C358.831 92.7354 360.01 93.8317 361.52 94.6178C363.03 95.3832 364.809 95.7659 366.857 95.7659ZM403.583 86.364L403.925 85.6193C405.807 85.64 407.328 85.9296 408.486 86.4882C409.644 87.026 410.493 87.7604 411.03 88.6912C411.568 89.6014 411.837 90.615 411.837 91.7321C411.837 92.9526 411.537 94.0386 410.937 94.9902C410.358 95.921 409.5 96.6554 408.362 97.1932C407.224 97.7311 405.817 98 404.142 98H389.465L391.296 86.0537L389.465 74.7281H403.614C405.766 74.7281 407.41 75.2349 408.548 76.2485C409.706 77.2414 410.286 78.6067 410.286 80.3444C410.286 81.2546 410.058 82.1544 409.603 83.0439C409.169 83.9127 408.465 84.6574 407.493 85.278C406.521 85.8779 405.218 86.2399 403.583 86.364ZM392.444 97.0381L391.327 95.5797H403.987C405.518 95.5797 406.707 95.2384 407.555 94.5558C408.424 93.8524 408.858 92.8491 408.858 91.5459C408.858 90.1599 408.352 89.0946 407.338 88.3499C406.324 87.6052 404.825 87.2329 402.839 87.2329H392.785V84.8746H402.684C404.007 84.8746 405.104 84.5126 405.973 83.7886C406.862 83.0646 407.307 82.0096 407.307 80.6236C407.307 79.61 406.945 78.7826 406.221 78.1413C405.518 77.4793 404.473 77.1484 403.087 77.1484H391.327L392.444 75.69L394.119 86.0537L392.444 97.0381ZM420.683 90.4599H423.631C423.775 91.5563 424.21 92.5182 424.934 93.3456C425.658 94.1731 426.609 94.8143 427.789 95.2694C428.988 95.7038 430.364 95.921 431.915 95.921C434.253 95.921 436.104 95.528 437.47 94.7419C438.856 93.9352 439.549 92.8491 439.549 91.4839C439.549 90.4289 439.114 89.6221 438.245 89.0636C437.397 88.5051 435.908 88.1017 433.777 87.8534L429.278 87.2949C426.444 86.9639 424.406 86.2916 423.165 85.278C421.924 84.2437 421.303 82.8577 421.303 81.1201C421.303 79.7341 421.717 78.5343 422.545 77.5207C423.372 76.4864 424.531 75.7003 426.02 75.1625C427.53 74.604 429.288 74.3247 431.295 74.3247C433.301 74.3247 435.08 74.635 436.632 75.2556C438.204 75.8555 439.445 76.7036 440.355 77.8C441.286 78.8756 441.793 80.1478 441.876 81.6166H438.928C438.804 80.6236 438.411 79.7755 437.749 79.0722C437.087 78.3482 436.198 77.7896 435.08 77.3966C433.984 76.9829 432.702 76.776 431.233 76.776C429.102 76.776 427.396 77.1587 426.113 77.9241C424.851 78.6688 424.22 79.7134 424.22 81.058C424.22 82.0923 424.634 82.8888 425.461 83.4473C426.31 83.9851 427.737 84.3782 429.743 84.6264L434.15 85.216C436.198 85.4642 437.821 85.8262 439.021 86.302C440.242 86.7778 441.121 87.419 441.659 88.2258C442.196 89.0119 442.465 90.0151 442.465 91.2356C442.465 92.7043 442.021 93.9765 441.131 95.0522C440.262 96.1279 439.032 96.9553 437.439 97.5346C435.846 98.1138 433.994 98.4034 431.884 98.4034C429.754 98.4034 427.861 98.0724 426.206 97.4104C424.551 96.7278 423.238 95.7969 422.265 94.6178C421.293 93.418 420.766 92.032 420.683 90.4599Z" fill="white"/>
<g clip-path="url(#clip0_2_339)">
<ellipse cx="62.7102" cy="61" rx="60.4299" ry="61" fill="white"/>
<ellipse cx="62.7102" cy="61" rx="60.4299" ry="61" fill="url(#paint0_radial_2_339)"/>
<path opacity="0.15" d="M61.6484 110.872C91.067 110.872 114.916 87.0235 114.916 57.6048C114.916 28.1861 91.067 4.33755 61.6484 4.33755C32.2297 4.33755 8.3811 28.1861 8.3811 57.6048C8.3811 87.0235 32.2297 110.872 61.6484 110.872Z" fill="url(#paint1_linear_2_339)"/>
<mask id="mask0_2_339" style="mask-type:luminance" maskUnits="userSpaceOnUse" x="1" y="0" width="123" height="122">
<path d="M105.182 104.042C128.954 80.2706 128.954 41.7294 105.182 17.9579C81.4107 -5.81353 42.8695 -5.81352 19.0981 17.9579C-4.67339 41.7294 -4.67339 80.2706 19.0981 104.042C42.8695 127.814 81.4107 127.814 105.182 104.042Z" fill="white"/>
</mask>
<g mask="url(#mask0_2_339)">
<path d="M115.578 17.1625C111.967 13.739 108.436 10.2067 105.018 6.59848C103.291 10.2678 83.4767 30.9604 62.1431 52.3979C40.8096 30.9604 20.9952 10.269 19.2682 6.59848C15.8508 10.2067 12.3184 13.739 8.70658 17.1625C11.9295 19.3494 32.5353 39.2495 53.9581 60.5842C32.5071 81.9483 11.6457 101.987 7.94458 104.423C11.5528 107.815 15.0839 111.317 18.5062 114.898C20.7126 111.007 40.7815 90.2044 62.1431 68.7669C83.5048 90.2044 103.574 111.007 105.78 114.898C109.201 111.318 112.734 107.815 116.34 104.424C112.639 101.988 91.778 81.9496 70.327 60.5855C91.7498 39.2495 112.357 19.3494 115.578 17.1625Z" fill="url(#paint2_linear_2_339)"/>
<path d="M111.995 13.7048C110.81 12.5403 109.635 11.3662 108.472 10.181C106.173 13.4711 84.4735 35.508 62.1432 57.8542C39.8116 35.508 18.1123 13.4711 15.8141 10.181C14.6509 11.3662 13.4767 12.5403 12.2915 13.7048C15.1096 16.48 37.0743 38.2514 59.4156 60.583C37.0645 82.9244 14.8454 104.827 11.5271 107.851C12.7111 109.005 13.8865 110.17 15.0497 111.346C17.8482 107.816 39.803 85.658 62.1432 63.3118C84.4846 85.6593 106.438 107.816 109.237 111.346C110.4 110.17 111.575 109.006 112.759 107.851C109.441 104.827 87.2219 82.9244 64.8707 60.583C87.2121 38.2502 109.177 16.4788 111.995 13.7048Z" fill="url(#paint3_linear_2_339)"/>
<path d="M135.551 55.013C113.959 53.182 92.3687 52.1594 70.7771 51.943C70.5643 30.9751 69.6323 10.0061 67.9786 -10.9617C64.0879 -11.4082 60.1972 -11.4082 56.3053 -10.9617C54.6528 10.0061 53.7196 30.9751 53.5068 51.943C31.9152 52.1582 10.3248 53.182 -11.2668 55.013C-11.7634 58.8719 -11.7989 62.7296 -11.372 66.5885C10.2502 68.1627 31.8711 69.0421 53.4933 69.2268C53.6817 90.8355 54.6345 112.444 56.3517 134.053C60.2106 134.503 64.0684 134.503 67.9273 134.053C69.6445 112.444 70.5973 90.8355 70.7857 69.2268C92.4079 69.0421 114.03 68.1627 135.651 66.5885C136.083 62.7296 136.047 58.8719 135.551 55.013Z" fill="url(#paint4_radial_2_339)"/>
<path d="M135.814 57.5852C112.862 56.4477 89.9089 55.841 66.9572 55.7664C66.8838 33.447 66.3603 11.1264 65.3855 -11.1929C63.2243 -11.3311 61.0618 -11.3311 58.9006 -11.1929C57.9257 11.1264 57.4022 33.447 57.3289 55.7664C34.3771 55.841 11.4242 56.4465 -11.5275 57.5852C-11.6889 59.7293 -11.7085 61.8722 -11.5862 64.0163C11.3839 64.8823 34.3539 65.3434 57.324 65.3996C57.3815 88.3624 57.916 111.325 58.9262 134.287C61.0704 134.425 63.2133 134.425 65.3574 134.287C66.3677 111.324 66.9022 88.3611 66.9597 65.3996C89.9297 65.3434 112.9 64.8823 135.87 64.0163C135.995 61.8722 135.975 59.7293 135.814 57.5852Z" fill="url(#paint5_linear_2_339)"/>
</g>
<circle cx="108.888" cy="88.3645" r="33.6355" fill="white"/>
<path d="M103.573 70.7948C103.175 70.7948 102.936 71.113 102.936 71.4312V74.6134H115.665V71.4312C115.665 71.113 115.347 70.7948 115.029 70.7948H103.573ZM99.1176 71.4312C99.1176 69.0446 101.106 66.9762 103.573 66.9762H115.029C117.415 66.9762 119.484 69.0446 119.484 71.4312V74.6134H124.575C127.36 74.6134 129.667 76.9205 129.667 79.705V87.3422H88.9346V79.705C88.9346 76.9205 91.1621 74.6134 94.0261 74.6134H99.1176V71.4312ZM129.667 89.888V100.071C129.667 102.935 127.36 105.163 124.575 105.163H94.0261C91.1621 105.163 88.9346 102.935 88.9346 100.071V89.888H104.209V92.4338C104.209 93.8658 105.323 94.9795 106.755 94.9795H111.846C113.199 94.9795 114.392 93.8658 114.392 92.4338V89.888H129.667Z" fill="black"/>
<path d="M103.573 70.7948C103.175 70.7948 102.936 71.113 102.936 71.4312V74.6134H115.665V71.4312C115.665 71.113 115.347 70.7948 115.029 70.7948H103.573ZM99.1176 71.4312C99.1176 69.0446 101.106 66.9762 103.573 66.9762H115.029C117.415 66.9762 119.484 69.0446 119.484 71.4312V74.6134H124.575C127.36 74.6134 129.667 76.9205 129.667 79.705V87.3422H88.9346V79.705C88.9346 76.9205 91.1621 74.6134 94.0261 74.6134H99.1176V71.4312ZM129.667 89.888V100.071C129.667 102.935 127.36 105.163 124.575 105.163H94.0261C91.1621 105.163 88.9346 102.935 88.9346 100.071V89.888H104.209V92.4338C104.209 93.8658 105.323 94.9795 106.755 94.9795H111.846C113.199 94.9795 114.392 93.8658 114.392 92.4338V89.888H129.667Z" fill="#1B286B"/>
<path d="M129.667 89.888V100.071C129.667 102.935 127.36 105.163 124.575 105.163H94.0261C91.1621 105.163 88.9346 102.935 88.9346 100.071V89.888H104.209V92.4338C104.209 93.8658 105.323 94.9795 106.755 94.9795H111.846C113.199 94.9795 114.392 93.8658 114.392 92.4338V89.888H129.667Z" fill="black"/>
<path d="M129.667 89.888V100.071C129.667 102.935 127.36 105.163 124.575 105.163H94.0261C91.1621 105.163 88.9346 102.935 88.9346 100.071V89.888H104.209V92.4338C104.209 93.8658 105.323 94.9795 106.755 94.9795H111.846C113.199 94.9795 114.392 93.8658 114.392 92.4338V89.888H129.667Z" fill="#C11436"/>
</g>
<defs>
<radialGradient id="paint0_radial_2_339" cx="0" cy="0" r="1" gradientUnits="userSpaceOnUse" gradientTransform="translate(63.6076 34.9517) scale(68.248 66.0275)">
<stop stop-color="#3E3CC1"/>
<stop offset="1" stop-color="#13235B"/>
</radialGradient>
<linearGradient id="paint1_linear_2_339" x1="60.1826" y1="122.569" x2="63.3664" y2="-18.5748" gradientUnits="userSpaceOnUse">
<stop stop-color="#13235B" stop-opacity="0"/>
<stop offset="1" stop-color="white"/>
</linearGradient>
<linearGradient id="paint2_linear_2_339" x1="7.9447" y1="60.7481" x2="116.341" y2="60.7481" gradientUnits="userSpaceOnUse">
<stop stop-color="#E2E8F7"/>
<stop offset="1" stop-color="white"/>
</linearGradient>
<linearGradient id="paint3_linear_2_339" x1="11.526" y1="60.7626" x2="112.759" y2="60.7626" gradientUnits="userSpaceOnUse">
<stop stop-color="#DE1F31"/>
<stop offset="1" stop-color="#A50A3B"/>
</linearGradient>
<radialGradient id="paint4_radial_2_339" cx="0" cy="0" r="1" gradientUnits="userSpaceOnUse" gradientTransform="translate(62.1427 61.5475) scale(73.3276 73.3276)">
<stop stop-color="white"/>
<stop offset="1" stop-color="#E2E8F7"/>
</radialGradient>
<linearGradient id="paint5_linear_2_339" x1="-11.6661" y1="61.5474" x2="135.951" y2="61.5474" gradientUnits="userSpaceOnUse">
<stop stop-color="#DE1F31"/>
<stop offset="1" stop-color="#A50A3B"/>
</linearGradient>
<clipPath id="clip0_2_339">
<rect width="142.523" height="122" fill="white"/>
</clipPath>
</defs>
</svg>
